<?xml version="1.0" encoding="UTF-8"?>
<svg xmlns="http://www.w3.org/2000/svg" xmlns:xlink="http://www.w3.org/1999/xlink" width="128px" height="128px" viewBox="0 0 128 128" version="1.1">
<g id="surface1">
<path style=" stroke:none;fill-rule:nonzero;fill:rgb(0%,0%,0%);fill-opacity:1;" d="M 0 64.058594 L 0 128.113281 L 128.113281 128.113281 L 128.113281 0 L 0 0 Z M 83.585938 63.773438 L 99.585938 111.660156 L 94.917969 111.488281 L 90.304688 111.316406 L 86.207031 98.789062 L 82.105469 86.261719 L 41.964844 86.261719 L 37.921875 98.902344 L 33.878906 111.601562 L 29.496094 111.601562 C 27.046875 111.601562 25.054688 111.542969 25.054688 111.429688 C 25.054688 111.316406 56.199219 17.820312 56.65625 16.625 C 56.824219 16.171875 58.476562 15.941406 62.292969 15.941406 L 67.644531 15.941406 Z M 83.585938 63.773438 "/>
<path style=" stroke:none;fill-rule:nonzero;fill:rgb(0%,0%,0%);fill-opacity:1;" d="M 56.085938 42.535156 C 49.707031 62.292969 44.980469 76.699219 44.527344 77.835938 C 44.355469 78.40625 48.113281 78.578125 62.0625 78.578125 C 76.070312 78.578125 79.773438 78.40625 79.542969 77.835938 C 79.429688 77.496094 75.5 65.253906 70.890625 50.675781 C 66.277344 36.101562 62.40625 24.085938 62.347656 24.027344 C 62.234375 23.914062 59.445312 32.226562 56.085938 42.535156 Z M 56.085938 42.535156 "/>
</g>
</svg>
