<?xml version="1.0" encoding="UTF-8"?>
<svg xmlns="http://www.w3.org/2000/svg" xmlns:xlink="http://www.w3.org/1999/xlink" width="640px" height="640px" viewBox="0 0 640 640" version="1.1">
<g id="surface1">
<path style=" stroke:none;fill-rule:nonzero;fill:rgb(0%,0%,0%);fill-opacity:1;" d="M 292.1875 160.4375 C 273.3125 160.625 240.3125 161.8125 223.125 162.8125 C 179.1875 165.5 164.5625 168.875 151.4375 179.5625 C 143.875 185.625 136.375 196.625 133.75 205.375 L 133 207.9375 L 127.6875 208.6875 C 116.875 210.1875 105 214.6875 97.1875 220.25 C 88.375 226.625 81 237.125 78 247.875 C 76.625 252.8125 76.5625 253.1875 76.375 310.625 C 76.25 352.125 76.375 370.125 76.875 374.375 C 78.9375 391.1875 87.9375 408.5625 100.1875 419.6875 C 122.5625 439.9375 150.125 450.5 198.6875 457.5 C 219.1875 460.4375 231 461.4375 241.25 461.0625 C 251.875 460.6875 257.625 459.375 265.5625 455.5 C 270.5 453.125 271.75 452.125 280.9375 442.8125 C 290.0625 433.5625 291.4375 432.5 296.6875 429.8125 C 305.125 425.5 310.4375 424.1875 320.3125 424.125 C 329.8125 424.0625 335.3125 425.375 343.0625 429.375 C 349.625 432.8125 354 436.375 359.4375 442.875 C 373 459 387.3125 463.25 418.4375 460.3125 C 462.9375 456.125 499.5625 446.875 519.6875 434.6875 C 544.375 419.75 558.125 402 562.5625 379.125 C 563.75 373.1875 563.75 370.125 563.625 312.25 L 563.4375 251.5625 L 562 246.875 C 560.0625 240.6875 556.375 233.6875 552.4375 228.875 C 546.75 222 536.5 215.25 526.5625 211.9375 C 522.3125 210.5625 510.9375 208.125 508.5625 208.125 C 507.25 208.125 506.875 207.625 505.9375 204.8125 C 500.9375 189.4375 488.1875 176 473.375 170.6875 C 464.75 167.5625 451.4375 165.25 433.125 163.75 C 409.6875 161.8125 346.1875 159.875 317.1875 160.1875 C 310.3125 160.25 299.0625 160.375 292.1875 160.4375 Z M 361.75 189.3125 C 361.5625 200.875 361.4375 201.9375 360.25 203.5625 C 359.5 204.5 358.0625 205.8125 357 206.4375 C 355.1875 207.5 352.6875 207.625 320.1875 207.6875 C 286.125 207.8125 285.25 207.75 283.125 206.5 C 281.9375 205.8125 280.3125 204.3125 279.5625 203.125 C 278.1875 201.1875 278.125 200.5 278.125 189 L 278.125 176.875 L 361.9375 176.875 Z M 261.9375 186.875 C 261.8125 197.75 262.625 204.875 264.4375 208.5625 C 268.0625 216.125 276.625 221.9375 285.625 223.125 C 291.75 223.875 348.3125 223.875 354.3125 223.125 C 366.4375 221.5625 375.8125 212.9375 377.5625 201.75 C 377.875 199.5625 378.125 193.1875 378 187.625 L 377.8125 177.5 L 380.3125 177.5 C 386.9375 177.5 415.5625 178.875 428.125 179.75 C 457 181.75 467.0625 183.8125 475.875 189.6875 C 484.3125 195.25 489.375 203.4375 493.125 217.375 C 494.125 221.1875 495.9375 222.0625 505.4375 223.375 C 519.8125 225.375 529.9375 229.3125 537 235.625 C 541.375 239.5 544.0625 243.6875 546.1875 249.875 L 547.8125 254.6875 L 547.8125 314.375 C 547.8125 368.9375 547.75 374.4375 546.75 378.25 C 541 400.625 526.125 415.9375 499.6875 426.8125 C 480.125 434.875 450.625 441 413.4375 444.6875 C 401 445.9375 396.375 445.875 390.125 444.375 C 380.9375 442.1875 377.6875 440 369.375 430.3125 C 361.3125 420.9375 353.125 415.375 341.8125 411.625 C 323.375 405.5 302.8125 407.5625 286.125 417.25 C 282 419.6875 279 422.25 271.25 430.125 C 260.3125 441.1875 257.75 442.8125 248.125 444.75 C 241.875 446 235.125 445.75 217.8125 443.75 C 146.3125 435.4375 109.8125 418.75 97.1875 388.8125 C 91.9375 376.375 91.75 373.1875 92 309.375 C 92.25 257.3125 92.25 256.5 93.625 251.6875 C 96.5 241.25 102.125 234.625 111.9375 229.75 C 118.5 226.5 124.3125 224.875 134.1875 223.4375 C 137.9375 222.9375 141.5625 222.375 142.3125 222.1875 C 144.5 221.6875 146.75 218.8125 147.25 216 C 148.25 209.6875 152.625 201 157.5 195.4375 C 160.75 191.8125 167.5625 187.1875 172.3125 185.5625 C 182.125 182.1875 197.5625 180.375 231.5625 178.75 C 247.6875 177.9375 254.8125 177.6875 259 177.75 L 262 177.8125 Z M 261.9375 186.875 "/>
<path style=" stroke:none;fill-rule:nonzero;fill:rgb(0%,0%,0%);fill-opacity:1;" d="M 180.875 240.25 C 180.6875 240.75 190.625 256.4375 204.625 277.75 C 217.875 297.875 228.75 314.5 228.75 314.75 C 228.75 314.9375 218.875 329.625 206.75 347.375 C 194.6875 365.1875 183 382.3125 180.8125 385.5625 C 178.625 388.75 176.875 391.875 177 392.4375 C 177.1875 393.3125 179.25 393.4375 195.8125 393.625 L 214.375 393.75 L 216 391.4375 C 216.875 390.125 224.5 378.5 232.9375 365.625 C 241.3125 352.75 248.375 342.125 248.625 342.0625 C 248.875 342 256.25 353.5625 265.0625 367.6875 L 281.0625 393.4375 L 300.4375 393.625 C 317.0625 393.75 319.9375 393.625 320.625 392.8125 C 321.5625 391.6875 321.8125 392.125 291.875 347.1875 C 280.625 330.3125 271.125 315.9375 270.75 315.1875 C 270.0625 314 272.3125 310.375 294.0625 277.5625 C 307.3125 257.5625 318.125 240.8125 318.125 240.3125 C 318.125 239.5 315.8125 239.375 300.25 239.5 L 282.375 239.6875 L 270.9375 257.375 C 264.625 267.125 257.4375 278.125 255 281.9375 L 250.5625 288.8125 L 239.4375 270.8125 C 233.3125 260.9375 226.5 249.875 224.25 246.25 L 220.1875 239.6875 L 200.6875 239.5 C 184.3125 239.375 181.1875 239.5 180.875 240.25 Z M 180.875 240.25 "/>
<path style=" stroke:none;fill-rule:nonzero;fill:rgb(0%,0%,0%);fill-opacity:1;" d="M 334.75 240.3125 C 334.5625 240.875 334.375 275.3125 334.375 316.875 C 334.375 380.125 334.5 392.4375 335.25 393.0625 C 335.8125 393.5625 340.875 393.75 352.25 393.625 L 368.4375 393.4375 L 368.625 364.5 L 368.75 335.625 L 386.8125 335.625 L 404.5625 364.5 L 422.3125 393.4375 L 441.0625 393.625 C 456.75 393.75 459.9375 393.625 460.5625 392.875 C 461.1875 392.125 457.625 386.4375 441.3125 362 L 421.375 332.0625 L 425.625 330.375 C 444.375 323 454.5625 305.5625 453.625 282.5 C 453.1875 273.4375 451.3125 267.4375 446.5625 260.3125 C 440.75 251.5625 434.3125 246.3125 425.625 243.375 C 415.4375 239.9375 413.25 239.8125 372.75 239.5625 C 338.3125 239.3125 335.125 239.375 334.75 240.3125 Z M 406.375 268.75 C 413.5625 270.9375 418.25 276.5625 419.25 284.1875 C 420.6875 294.875 416.0625 303.3125 406.9375 307 C 403.6875 308.3125 402.3125 308.4375 386.125 308.625 L 368.75 308.8125 L 368.75 267.5 L 385.5625 267.5 C 400.5625 267.5 402.8125 267.625 406.375 268.75 Z M 406.375 268.75 "/>
</g>
</svg>
